Coordinates
version=1
nRows=6
nColumns=36
inDegrees=yes

Units are S.I. units (second, meters, Newtons, ...)
If the header above contains a line with 'inDegrees', this indicates whether rotational values are in degrees (yes) or radians (no).

endheader
time	pelvis_tilt	pelvis_list	pelvis_rotation	pelvis_tx	pelvis_ty	pelvis_tz	hip_flexion_r	hip_adduction_r	hip_rotation_r	knee_angle_r	knee_angle_r_beta	ankle_angle_r	subtalar_angle_r	mtp_angle_r	hip_flexion_l	hip_adduction_l	hip_rotation_l	knee_angle_l	knee_angle_l_beta	ankle_angle_l	subtalar_angle_l	mtp_angle_l	lumbar_extension	lumbar_bending	lumbar_rotation	arm_flex_r	arm_add_r	arm_rot_r	elbow_flex_r	pro_sup_r	arm_flex_l	arm_add_l	arm_rot_l	elbow_flex_l	pro_sup_l
      0.00000000	     -5.27214437	     -0.04499343	      5.99740141	      0.00906619	      0.87753573	     -0.23719134	     33.47041214	      0.48001104	     -0.60111553	     13.04335765	      0.22764954	      6.48064512	     -7.82155568	     -5.09475362	    -11.27301958	      5.29785757	      6.01113073	     12.13803768	      0.21184872	     16.92914300	     -1.53911338	     -5.09475362	     -3.69384070	      1.15526611	    -13.40054758	    -13.81541421	    -12.74958558	     -6.78444874	     34.91513811	    106.44176213	      0.81984304	    -19.42169367	     -2.93711892	     62.92267778	    104.26919523
      0.01000000	     -5.15287163	     -0.28606016	      5.88307838	      0.02270148	      0.87653146	     -0.23661665	     33.09148496	      1.02019795	     -0.36830135	     13.81001588	      0.24103025	      6.11668409	     -7.70901900	     -5.10396187	    -11.77746877	      4.87934452	      6.13739726	     13.11801282	      0.22895251	     16.38153337	     -1.47103236	     -5.10396187	     -3.66890896	      1.61561112	    -13.26548422	    -13.86649027	    -12.88048461	     -6.85339470	     34.89915967	    106.42582157	      0.34034281	    -19.09389116	     -2.90185237	     62.57210316	    104.26528598
      0.02000000	     -5.09109289	     -0.60221884	      5.81626061	      0.03634237	      0.87561472	     -0.23607477	     32.78242788	      1.54818127	     -0.65068877	     14.53189753	      0.25362946	      5.14887477	     -7.75947171	     -5.13007327	    -11.89450771	      4.30309642	      5.34285365	     14.60277450	      0.25486650	     15.27580606	     -1.50974629	     -5.13007327	     -3.53902754	      2.16291359	    -13.11697886	    -13.98555433	    -12.92858700	     -7.04286578	     35.01585677	    106.39234396	      0.01793973	    -18.50087914	     -3.15244138	     61.82225957	    104.25075418
      0.03000000	     -5.06660040	     -0.92585278	      5.65204530	      0.05018973	      0.87482346	     -0.23533125	     32.48899687	      2.13799651	     -0.68600993	     15.26570364	      0.26643679	      4.11959802	     -7.87374639	     -5.16128224	    -12.02449156	      3.72205045	      4.77009846	     15.96973583	      0.27872447	     14.25039253	     -1.21856002	     -5.16128224	     -3.35279558	      2.70926258	    -12.84845438	    -14.12215645	    -13.02648180	     -7.32164652	     35.12192810	    106.35033838	     -0.39094207	    -17.96135675	     -3.34645261	     61.08074081	    104.26146533
      0.04000000	     -5.04563242	     -1.27328801	      5.42288622	      0.06413277	      0.87433731	     -0.23441292	     32.19170887	      2.76287435	     -0.73155375	     16.03292418	      0.27982732	      3.05217808	     -8.06265642	     -5.19606729	    -12.01828305	      3.08329402	      4.04141301	     17.53311855	      0.30601065	     13.10428886	     -0.73860123	     -5.19606729	     -3.16144163	      3.27585823	    -12.48434144	    -14.22266485	    -13.09622185	     -7.59791486	     35.21824736	    106.31317544	     -0.79036500	    -17.39423051	     -3.46638763	     60.23452560	    104.27993021
      0.05000000	     -5.00100823	     -1.62421104	      5.15770054	      0.07806073	      0.87423204	     -0.23336783	     31.87357830	      3.37625777	     -0.82849838	     16.87672270	      0.29455438	      2.14082542	     -8.19155884	     -5.22391406	    -11.84306060	      2.41097156	      3.23133903	     19.38816600	      0.33838733	     11.73521680	     -0.22529427	     -5.22391406	     -3.01445699	      3.83877174	    -12.05814139	    -14.23168216	    -13.14350982	     -7.76288229	     35.27847375	    106.29348969	     -1.15512797	    -16.81756357	     -3.53519716	     59.32614616	    104.27282691
